# xmcd
#
# Track frame offsets:
#	150
#	23821
#	39077
#	49781
#	60266
#	78806
#	91378
#	102390
#	120908
#	135864
#	151824
#	162452
#	182868
#	199053
#	219888
#	232167
#
# Disc length: 3241 seconds
#
# Revision: 1
# Processed by: cddbd v1.4PL0 Copyright (c) Steve Scherf et al.
# Submitted via: CDmax 1.8
#
DISCID=be0ca710
DTITLE=Red Sovine - 16 Greatest Hits
DYEAR=1985
DGENRE=Country
TTITLE0=Teddy Bear
TTITLE1=Dream House For Sale
TTITLE2=Class Of 49
TTITLE3=In Your Heart
TTITLE4=Giddyup Go
TTITLE5=I Didn't Jump The Fence
TTITLE6=Normally, Norma Loves Me
TTITLE7=Little Rosa
TTITLE8=It'll Come Back
TTITLE9=Phantom 309
TTITLE10=Tell Maude I Slipped
TTITLE11=Little Joe
TTITLE12=Daddy's Girl
TTITLE13=Daddy
TTITLE14=Freightliner Fever
TTITLE15=I Know Your Married (But I Love You Still)
EXTD=
EXTT0=
EXTT1=
EXTT2=
EXTT3=
EXTT4=
EXTT5=
EXTT6=
EXTT7=
EXTT8=
EXTT9=
EXTT10=
EXTT11=
EXTT12=
EXTT13=
EXTT14=
EXTT15=
PLAYORDER=
